<svg width="194" height="59" viewBox="0 0 194 59" fill="none" xmlns="http://www.w3.org/2000/svg">
<g id="Performen" filter="url(#filter0_d_8_10)">
<path d="M22.4608 11.6C25.0848 9.808 26.8768 8.72 27.8368 8.336C28.7968 7.92 29.9168 7.712 31.1968 7.712C32.5088 7.712 33.5168 8.16 34.2208 9.056C34.9248 9.952 35.2768 11.232 35.2768 12.896C35.2768 15.872 34.3168 19.072 32.3968 22.496C30.4768 25.92 28.0768 28.8 25.1968 31.136C22.3168 33.44 19.5968 34.592 17.0368 34.592C16.3968 34.592 15.6608 34.56 14.8288 34.496C13.2608 37.824 11.8368 40.336 10.5568 42.032C9.27681 43.728 7.99681 44.576 6.71681 44.576C5.91681 44.576 5.29281 44.288 4.84481 43.712C4.39681 43.136 4.17281 42.336 4.17281 41.312C4.17281 38.016 5.69281 33.616 8.73281 28.112C11.7728 22.576 15.1168 18.144 18.7648 14.816C19.2768 12.704 19.5328 11.168 19.5328 10.208C19.5328 9.216 19.5008 8.464 19.4368 7.952L22.8928 7.376C22.8928 7.6 22.7488 9.008 22.4608 11.6ZM11.4688 31.04L12.8128 31.712C14.8288 27.776 16.5248 23.36 17.9008 18.464C14.9568 22.144 12.5408 25.888 10.6528 29.696C8.76481 33.504 7.82081 36.432 7.82081 38.48C7.82081 39.088 8.01281 39.392 8.39681 39.392C8.68481 39.392 9.19681 38.8 9.93281 37.616C10.6688 36.4 11.2928 35.168 11.8048 33.92C11.3888 33.728 10.9888 33.44 10.6048 33.056L11.4688 31.04ZM15.8368 32.384L16.7488 32.432C19.8528 32.432 22.7648 30.8 25.4848 27.536C27.0208 25.648 28.3168 23.488 29.3728 21.056C30.4608 18.624 31.0048 16.56 31.0048 14.864C31.0048 13.936 30.7488 13.2 30.2368 12.656C29.7568 12.112 29.0848 11.84 28.2208 11.84C26.6528 11.84 24.5728 12.704 21.9808 14.432C21.4048 18.752 19.3568 24.736 15.8368 32.384ZM43.9434 32.336L45.0474 33.2C44.0554 34.576 42.6954 35.728 40.9674 36.656C39.2394 37.552 37.5594 38 35.9274 38C34.2954 38 32.9834 37.52 31.9914 36.56C30.9994 35.6 30.5034 34.336 30.5034 32.768C30.5034 29.824 32.0554 26.928 35.1594 24.08C38.2954 21.232 41.4634 19.808 44.6634 19.808C46.7754 19.808 47.8314 20.64 47.8314 22.304C47.8314 24.032 46.7114 25.776 44.4714 27.536C42.2634 29.296 39.1434 30.896 35.1114 32.336C35.3994 33.072 35.8474 33.648 36.4554 34.064C37.0634 34.48 37.6874 34.688 38.3274 34.688C39.7034 34.688 41.5754 33.904 43.9434 32.336ZM34.8714 30.896C37.4634 30 39.6874 28.88 41.5434 27.536C43.3994 26.192 44.3274 24.96 44.3274 23.84C44.3274 23.424 44.1674 23.056 43.8474 22.736C43.5274 22.416 43.1594 22.256 42.7434 22.256C41.2394 22.256 39.6074 23.2 37.8474 25.088C36.1194 26.944 35.1274 28.88 34.8714 30.896ZM62.2247 21.008C63.0247 21.008 63.6807 21.28 64.1927 21.824C64.7047 22.368 64.9607 23.072 64.9607 23.936C64.9607 25.664 63.9687 27.488 61.9847 29.408L60.8327 28.496C61.2807 27.504 61.5047 26.784 61.5047 26.336C61.5047 25.472 61.0247 25.04 60.0647 25.04C59.1047 25.04 58.1927 25.648 57.3287 26.864C56.4647 28.08 55.4407 29.968 54.2567 32.528C53.1047 35.056 52.2247 36.848 51.6167 37.904L48.8807 36.704C50.6407 32.704 51.6487 30.352 51.9047 29.648C52.7687 27.152 53.2007 23.984 53.2007 20.144L55.8887 19.424C55.7927 21.504 55.6487 23.12 55.4567 24.272C55.2647 25.392 54.8007 27.232 54.0647 29.792C57.2967 23.936 60.0167 21.008 62.2247 21.008ZM76.1192 19.136L74.5832 24.944L80.8232 24.224L79.4312 26.48L74.0552 27.2C73.6392 28.928 72.9352 31.536 71.9432 35.024C69.7992 42.576 68.7272 47.36 68.7272 49.376L65.6552 50.96C65.6552 48.208 66.8392 42.896 69.2072 35.024C70.4232 31.088 71.1752 28.56 71.4632 27.44C70.3432 27.728 69.3192 27.872 68.3912 27.872C66.5672 27.872 65.6552 27.152 65.6552 25.712C65.6552 24.912 66.2632 23.952 67.4792 22.832C69.2392 21.2 71.3352 19.76 73.7672 18.512C75.6552 12.08 77.0152 8.048 77.8472 6.416C78.9672 4.208 79.9912 2.8 80.9192 2.192C82.2952 1.328 83.7192 0.895997 85.1912 0.895997C86.6632 0.895997 87.7032 1.312 88.3112 2.144C88.9192 2.976 89.1912 3.952 89.1272 5.072C88.9672 9.104 84.6312 13.792 76.1192 19.136ZM83.7992 4.976C82.0072 4.976 80.6792 5.84 79.8152 7.568C79.1432 8.912 78.5512 10.528 78.0392 12.416C77.5272 14.304 77.1592 15.6 76.9352 16.304C78.6952 15.216 80.5832 13.744 82.5992 11.888C84.6152 10.032 85.6552 8.416 85.7192 7.04C85.7832 5.664 85.1432 4.976 83.7992 4.976ZM72.1352 25.184L73.1912 20.96C71.9752 21.472 71.0152 22 70.3112 22.544C69.6392 23.088 69.3032 23.552 69.3032 23.936C69.3032 24.768 70.2472 25.184 72.1352 25.184ZM95.8866 23.744C96.7186 25.12 97.1346 26.64 97.1346 28.304C97.1346 30.896 96.2386 33.216 94.4466 35.264C92.6546 37.28 90.5426 38.288 88.1106 38.288C86.2546 38.288 84.7986 37.76 83.7426 36.704C82.7186 35.616 82.2066 34.128 82.2066 32.24C82.2066 29.2 83.3906 26.48 85.7586 24.08C88.1266 21.648 90.7826 20.432 93.7266 20.432C94.2706 20.432 94.6546 20.448 94.8786 20.48L95.0226 22.064C92.4626 22.064 90.3346 22.8 88.6386 24.272C86.9426 25.744 86.0946 27.632 86.0946 29.936C86.0946 31.312 86.4306 32.432 87.1026 33.296C87.7746 34.128 88.7506 34.544 90.0306 34.544C91.3426 34.544 92.3826 33.968 93.1506 32.816C93.9186 31.664 94.3026 30.32 94.3026 28.784C94.3026 27.216 93.9986 25.792 93.3906 24.512L95.8866 23.744ZM111.537 21.008C112.337 21.008 112.993 21.28 113.505 21.824C114.017 22.368 114.273 23.072 114.273 23.936C114.273 25.664 113.281 27.488 111.297 29.408L110.145 28.496C110.593 27.504 110.817 26.784 110.817 26.336C110.817 25.472 110.337 25.04 109.377 25.04C108.417 25.04 107.505 25.648 106.641 26.864C105.777 28.08 104.753 29.968 103.569 32.528C102.417 35.056 101.537 36.848 100.929 37.904L98.1932 36.704C99.9532 32.704 100.961 30.352 101.217 29.648C102.081 27.152 102.513 23.984 102.513 20.144L105.201 19.424C105.105 21.504 104.961 23.12 104.769 24.272C104.577 25.392 104.113 27.232 103.377 29.792C106.609 23.936 109.329 21.008 111.537 21.008ZM147.656 31.76L148.664 32.72C146.84 35.984 144.744 37.616 142.376 37.616C141.416 37.616 140.664 37.36 140.12 36.848C139.608 36.304 139.352 35.6 139.352 34.736C139.352 33.84 139.88 32.32 140.936 30.176C141.992 28.032 142.552 26.4 142.616 25.28C142.648 24.768 142.488 24.352 142.136 24.032C141.816 23.712 141.368 23.552 140.792 23.552C140.216 23.552 139.624 23.696 139.016 23.984C138.44 24.24 137.864 24.672 137.288 25.28C136.744 25.888 136.232 26.48 135.752 27.056C135.304 27.632 134.792 28.448 134.216 29.504C133.672 30.56 133.208 31.44 132.824 32.144C132.152 33.456 131.192 35.424 129.944 38.048L127.064 37.04C127.064 36.944 127.592 35.136 128.648 31.616C129.704 28.096 130.232 26 130.232 25.328C130.232 24.656 130.072 24.176 129.752 23.888C129.432 23.568 129.032 23.408 128.552 23.408C127.112 23.408 125.112 25.2 122.552 28.784C120.024 32.368 118.408 35.424 117.704 37.952L114.968 37.04C115.128 35.344 115.88 32.304 117.224 27.92C118.568 23.504 119.704 20.496 120.632 18.896L122.792 19.664C121.8 21.872 121.112 23.744 120.728 25.28C120.344 26.784 120.008 28.4 119.72 30.128C122.472 26.192 124.776 23.44 126.632 21.872C128.488 20.272 130.168 19.472 131.672 19.472C133.304 19.472 134.12 20.288 134.12 21.92C134.12 22.56 133.832 23.824 133.256 25.712C132.712 27.6 132.28 29.088 131.96 30.176C136.376 23.072 140.328 19.52 143.816 19.52C144.68 19.52 145.368 19.792 145.88 20.336C146.392 20.848 146.648 21.632 146.648 22.688C146.648 23.712 146.04 25.424 144.824 27.824C143.64 30.224 143.048 31.744 143.048 32.384C143.048 32.992 143.176 33.44 143.432 33.728C143.688 34.016 144.008 34.16 144.392 34.16C145.224 34.16 146.312 33.36 147.656 31.76ZM163.24 32.336L164.344 33.2C163.352 34.576 161.992 35.728 160.264 36.656C158.536 37.552 156.856 38 155.224 38C153.592 38 152.28 37.52 151.288 36.56C150.296 35.6 149.8 34.336 149.8 32.768C149.8 29.824 151.352 26.928 154.456 24.08C157.592 21.232 160.76 19.808 163.96 19.808C166.072 19.808 167.128 20.64 167.128 22.304C167.128 24.032 166.008 25.776 163.768 27.536C161.56 29.296 158.44 30.896 154.408 32.336C154.696 33.072 155.144 33.648 155.752 34.064C156.36 34.48 156.984 34.688 157.624 34.688C159 34.688 160.872 33.904 163.24 32.336ZM154.168 30.896C156.76 30 158.984 28.88 160.84 27.536C162.696 26.192 163.624 24.96 163.624 23.84C163.624 23.424 163.464 23.056 163.144 22.736C162.824 22.416 162.456 22.256 162.04 22.256C160.536 22.256 158.904 23.2 157.144 25.088C155.416 26.944 154.424 28.88 154.168 30.896ZM188.194 32.192L189.202 32.96C188.498 34.368 187.522 35.552 186.274 36.512C185.058 37.472 183.954 37.952 182.962 37.952C181.97 37.952 181.186 37.664 180.61 37.088C180.034 36.512 179.746 35.792 179.746 34.928C179.746 34.064 180.29 32.56 181.378 30.416C182.498 28.24 183.058 26.64 183.058 25.616C183.058 25.168 182.866 24.768 182.482 24.416C182.13 24.032 181.698 23.84 181.186 23.84C179.554 23.84 177.906 25.088 176.242 27.584C174.578 30.048 172.722 33.616 170.674 38.288L167.794 37.28C168.402 33.568 169.266 29.952 170.386 26.432C171.538 22.88 172.594 20.336 173.554 18.8L175.522 19.424C174.626 21.696 173.49 25.616 172.114 31.184C176.53 23.632 180.594 19.856 184.306 19.856C185.106 19.856 185.762 20.128 186.274 20.672C186.818 21.216 187.09 21.856 187.09 22.592C187.09 23.328 186.994 24 186.802 24.608C186.61 25.184 186.002 26.56 184.978 28.736C183.986 30.88 183.49 32.224 183.49 32.768C183.49 33.312 183.65 33.744 183.97 34.064C184.29 34.352 184.594 34.496 184.882 34.496C185.17 34.496 185.41 34.448 185.602 34.352C185.794 34.256 186.002 34.112 186.226 33.92C186.482 33.728 186.706 33.552 186.898 33.392C187.09 33.232 187.314 33.024 187.57 32.768C187.858 32.48 188.066 32.288 188.194 32.192Z" fill="#313131"/>
<path d="M22.4608 11.6L22.0136 11.5503L21.9053 12.5243L22.7146 11.9716L22.4608 11.6ZM27.8368 8.336L28.004 8.75398L28.0157 8.7489L27.8368 8.336ZM34.2208 9.056L33.867 9.33401L34.2208 9.056ZM32.3968 22.496L32.0043 22.2759L32.3968 22.496ZM25.1968 31.136L25.4779 31.4874L25.4803 31.4855L25.1968 31.136ZM14.8288 34.496L14.8633 34.0473L14.554 34.0235L14.4217 34.3042L14.8288 34.496ZM10.5568 42.032L10.1976 41.7609L10.5568 42.032ZM4.84481 43.712L5.20002 43.4357H5.20002L4.84481 43.712ZM8.73281 28.112L9.12672 28.3296L9.12725 28.3286L8.73281 28.112ZM18.7648 14.816L19.0681 15.1484L19.1697 15.0557L19.2021 14.922L18.7648 14.816ZM19.4368 7.952L19.3628 7.50812L18.9367 7.57914L18.9903 8.00781L19.4368 7.952ZM22.8928 7.376H23.3428V6.8448L22.8188 6.93212L22.8928 7.376ZM11.4688 31.04L11.6701 30.6375L11.2432 30.4241L11.0552 30.8627L11.4688 31.04ZM12.8128 31.712L12.6116 32.1145L13.0102 32.3138L13.2133 31.9171L12.8128 31.712ZM17.9008 18.464L18.334 18.5858L17.5494 18.1829L17.9008 18.464ZM10.6528 29.696L10.2496 29.4961L10.6528 29.696ZM9.93281 37.616L10.315 37.8536L10.3178 37.849L9.93281 37.616ZM11.8048 33.92L12.2211 34.0908L12.3847 33.692L11.9934 33.5114L11.8048 33.92ZM10.6048 33.056L10.1912 32.8787L10.0712 33.1588L10.2866 33.3742L10.6048 33.056ZM15.8368 32.384L15.428 32.1959L15.1507 32.7985L15.8132 32.8334L15.8368 32.384ZM16.7488 32.432L16.7252 32.8814L16.737 32.882H16.7488V32.432ZM25.4848 27.536L25.8305 27.8241L25.8339 27.82L25.4848 27.536ZM29.3728 21.056L28.962 20.8722L28.96 20.8768L29.3728 21.056ZM30.2368 12.656L29.8994 12.9537L29.9042 12.9592L29.9091 12.9644L30.2368 12.656ZM21.9808 14.432L21.7312 14.0576L21.5617 14.1706L21.5348 14.3725L21.9808 14.432ZM22.7146 11.9716C25.3464 10.1743 27.0977 9.11629 28.0039 8.75381L27.6697 7.91818C26.6559 8.32371 24.8233 9.44169 22.207 11.2284L22.7146 11.9716ZM28.0157 8.7489C28.9081 8.36219 29.965 8.16199 31.1968 8.16199V7.262C29.8687 7.262 28.6855 7.47781 27.6579 7.9231L28.0157 8.7489ZM31.1968 8.16199C32.3943 8.16199 33.2619 8.5639 33.867 9.33401L34.5747 8.77798C33.7718 7.7561 32.6233 7.262 31.1968 7.262V8.16199ZM33.867 9.33401C34.4857 10.1215 34.8268 11.288 34.8268 12.896H35.7268C35.7268 11.176 35.3639 9.78249 34.5747 8.77798L33.867 9.33401ZM34.8268 12.896C34.8268 15.7742 33.8983 18.8984 32.0043 22.2759L32.7893 22.7161C34.7354 19.2456 35.7268 15.9698 35.7268 12.896H34.8268ZM32.0043 22.2759C30.1105 25.6532 27.7466 28.4884 24.9133 30.7865L25.4803 31.4855C28.407 29.1116 30.8431 26.1868 32.7893 22.7161L32.0043 22.2759ZM24.9157 30.7846C22.0813 33.0521 19.4581 34.142 17.0368 34.142V35.042C19.7356 35.042 22.5524 33.8279 25.4779 31.4874L24.9157 30.7846ZM17.0368 34.142C16.4112 34.142 15.6871 34.1107 14.8633 34.0473L14.7943 34.9447C15.6346 35.0093 16.3825 35.042 17.0368 35.042V34.142ZM14.4217 34.3042C12.8589 37.6213 11.4503 40.1012 10.1976 41.7609L10.916 42.3031C12.2234 40.5708 13.6628 38.0267 15.2359 34.6878L14.4217 34.3042ZM10.1976 41.7609C8.94701 43.418 7.78359 44.126 6.71681 44.126V45.026C8.21004 45.026 9.60661 44.038 10.916 42.3031L10.1976 41.7609ZM6.71681 44.126C6.04033 44.126 5.55376 43.8905 5.20002 43.4357L4.4896 43.9883C5.03186 44.6855 5.7933 45.026 6.71681 45.026V44.126ZM5.20002 43.4357C4.83397 42.9651 4.62281 42.2755 4.62281 41.312H3.72281C3.72281 42.3966 3.95966 43.3069 4.4896 43.9883L5.20002 43.4357ZM4.62281 41.312C4.62281 38.1341 6.09574 33.8172 9.12672 28.3296L8.3389 27.8944C5.28989 33.4148 3.72281 37.8979 3.72281 41.312H4.62281ZM9.12725 28.3286C12.1498 22.8245 15.4652 18.4353 19.0681 15.1484L18.4615 14.4836C14.7684 17.8527 11.3959 22.3275 8.33837 27.8954L9.12725 28.3286ZM19.2021 14.922C19.7147 12.8077 19.9828 11.2262 19.9828 10.208H19.0828C19.0828 11.1098 18.8389 12.6003 18.3275 14.71L19.2021 14.922ZM19.9828 10.208C19.9828 9.21101 19.9509 8.43657 19.8833 7.89618L18.9903 8.00781C19.0507 8.49142 19.0828 9.22099 19.0828 10.208H19.9828ZM19.5108 8.39587L22.9668 7.81988L22.8188 6.93212L19.3628 7.50812L19.5108 8.39587ZM22.4428 7.376C22.4428 7.45854 22.4107 7.83525 22.3371 8.55421C22.2653 9.25626 22.1575 10.2547 22.0136 11.5503L22.9081 11.6497C23.0521 10.3533 23.1603 9.35175 23.2325 8.64578C23.3029 7.95675 23.3428 7.51746 23.3428 7.376H22.4428ZM11.2676 31.4425L12.6116 32.1145L13.0141 31.3095L11.6701 30.6375L11.2676 31.4425ZM13.2133 31.9171C15.2448 27.9509 16.9511 23.5064 18.334 18.5858L17.4676 18.3422C16.0985 23.2136 14.4128 27.6011 12.4123 31.5069L13.2133 31.9171ZM17.5494 18.1829C14.5875 21.8853 12.1534 25.6563 10.2496 29.4961L11.056 29.8959C12.9282 26.1197 15.3262 22.4026 18.2522 18.7451L17.5494 18.1829ZM10.2496 29.4961C8.35709 33.3133 7.37081 36.3211 7.37081 38.48H8.27081C8.27081 36.5429 9.17253 33.6947 11.056 29.8959L10.2496 29.4961ZM7.37081 38.48C7.37081 38.8168 7.42138 39.1463 7.58434 39.4043C7.76931 39.6972 8.06303 39.842 8.39681 39.842V38.942C8.36091 38.942 8.35144 38.9352 8.35485 38.937C8.35955 38.9395 8.35573 38.9402 8.34528 38.9237C8.31625 38.8777 8.27081 38.7512 8.27081 38.48H7.37081ZM8.39681 39.842C8.61319 39.842 8.79546 39.7367 8.92249 39.6427C9.05976 39.5412 9.19832 39.4029 9.33718 39.2424C9.61605 38.9199 9.94256 38.4527 10.315 37.8536L9.55063 37.3784C9.18707 37.9633 8.88958 38.3841 8.65645 38.6536C8.5393 38.7891 8.44987 38.8728 8.38713 38.9193C8.31417 38.9733 8.32444 38.942 8.39681 38.942V39.842ZM10.3178 37.849C11.0652 36.6142 11.6999 35.3614 12.2211 34.0908L11.3885 33.7492C10.8858 34.9746 10.2724 36.1858 9.54784 37.383L10.3178 37.849ZM11.9934 33.5114C11.6336 33.3454 11.2763 33.0911 10.923 32.7378L10.2866 33.3742C10.7014 33.7889 11.144 34.1106 11.6162 34.3286L11.9934 33.5114ZM11.0184 33.2333L11.8824 31.2173L11.0552 30.8627L10.1912 32.8787L11.0184 33.2333ZM15.8132 32.8334L16.7252 32.8814L16.7725 31.9826L15.8605 31.9346L15.8132 32.8334ZM16.7488 32.882C20.0308 32.882 23.0583 31.1508 25.8305 27.8241L25.1391 27.2479C22.4714 30.4492 19.6748 31.982 16.7488 31.982V32.882ZM25.8339 27.82C27.398 25.8974 28.7147 23.7016 29.7856 21.2352L28.96 20.8768C27.919 23.2744 26.6436 25.3986 25.1357 27.252L25.8339 27.82ZM29.7836 21.2398C30.8843 18.7794 31.4548 16.6492 31.4548 14.864H30.5548C30.5548 16.4708 30.0374 18.4686 28.962 20.8722L29.7836 21.2398ZM31.4548 14.864C31.4548 13.8505 31.173 12.9941 30.5645 12.3476L29.9091 12.9644C30.3246 13.4059 30.5548 14.0215 30.5548 14.864H31.4548ZM30.5742 12.3583C29.9924 11.6989 29.1869 11.39 28.2208 11.39V12.29C28.9827 12.29 29.5212 12.5251 29.8994 12.9537L30.5742 12.3583ZM28.2208 11.39C26.5119 11.39 24.3366 12.3206 21.7312 14.0576L22.2304 14.8064C24.809 13.0874 26.7938 12.29 28.2208 12.29V11.39ZM21.5348 14.3725C20.9679 18.6238 18.9433 24.5581 15.428 32.1959L16.2456 32.5721C19.7703 24.9139 21.8417 18.8802 22.4269 14.4915L21.5348 14.3725ZM43.9434 32.336L44.2208 31.9816L43.9654 31.7818L43.695 31.9608L43.9434 32.336ZM45.0474 33.2L45.4125 33.4632L45.6655 33.1122L45.3248 32.8456L45.0474 33.2ZM40.9674 36.656L41.1746 37.0555L41.1803 37.0524L40.9674 36.656ZM31.9914 36.56L31.6785 36.8834L31.9914 36.56ZM35.1594 24.08L34.8569 23.7469L34.8552 23.7484L35.1594 24.08ZM44.4714 27.536L44.1934 27.1821L44.1909 27.1841L44.4714 27.536ZM35.1114 32.336L34.9601 31.9122L34.5234 32.0682L34.6924 32.5L35.1114 32.336ZM36.4554 34.064L36.2013 34.4354L36.4554 34.064ZM34.8714 30.896L34.425 30.8393L34.3338 31.558L35.0185 31.3213L34.8714 30.896ZM41.5434 27.536L41.8074 27.9005L41.5434 27.536ZM37.8474 25.088L37.5183 24.7812L37.5181 24.7814L37.8474 25.088ZM43.6661 32.6904L44.7701 33.5544L45.3248 32.8456L44.2208 31.9816L43.6661 32.6904ZM44.6824 32.9368C43.7361 34.2494 42.4318 35.3588 40.7545 36.2596L41.1803 37.0524C42.9591 36.0972 44.3747 34.9026 45.4125 33.4632L44.6824 32.9368ZM40.7603 36.2565C39.084 37.1257 37.4747 37.55 35.9274 37.55V38.45C37.6442 38.45 39.3948 37.9783 41.1746 37.0555L40.7603 36.2565ZM35.9274 37.55C34.3895 37.55 33.1974 37.1008 32.3044 36.2366L31.6785 36.8834C32.7695 37.9392 34.2014 38.45 35.9274 38.45V37.55ZM32.3044 36.2366C31.4122 35.3732 30.9534 34.2322 30.9534 32.768H30.0534C30.0534 34.4398 30.5867 35.8268 31.6785 36.8834L32.3044 36.2366ZM30.9534 32.768C30.9534 29.9965 32.4117 27.2118 35.4637 24.4116L34.8552 23.7484C31.6992 26.6442 30.0534 29.6515 30.0534 32.768H30.9534ZM35.462 24.4131C38.5425 21.6155 41.6075 20.258 44.6634 20.258V19.358C41.3194 19.358 38.0483 20.8485 34.8569 23.7469L35.462 24.4131ZM44.6634 20.258C45.6725 20.258 46.3463 20.4588 46.7609 20.7855C47.1551 21.096 47.3814 21.5737 47.3814 22.304H48.2814C48.2814 21.3703 47.9798 20.6 47.3179 20.0785C46.6765 19.5732 45.7663 19.358 44.6634 19.358V20.258ZM47.3814 22.304C47.3814 23.8247 46.3944 25.4528 44.1934 27.1822L44.7495 27.8898C47.0285 26.0992 48.2814 24.2393 48.2814 22.304H47.3814ZM44.1909 27.1841C42.0363 28.9016 38.9669 30.4812 34.9601 31.9122L35.2628 32.7598C39.3199 31.3108 42.4906 29.6904 44.7519 27.8879L44.1909 27.1841ZM34.6924 32.5C35.0108 33.3137 35.5133 33.9646 36.2013 34.4354L36.7095 33.6926C36.1816 33.3314 35.7881 32.8303 35.5305 32.172L34.6924 32.5ZM36.2013 34.4354C36.8725 34.8946 37.5836 35.138 38.3274 35.138V34.238C37.7913 34.238 37.2544 34.0654 36.7095 33.6926L36.2013 34.4354ZM38.3274 35.138C39.8457 35.138 41.8139 34.2858 44.1919 32.7112L43.695 31.9608C41.3369 33.5222 39.5612 34.238 38.3274 34.238V35.138ZM35.0185 31.3213C37.6443 30.4136 39.9094 29.2749 41.8074 27.9005L41.2795 27.1715C39.4655 28.4851 37.2826 29.5864 34.7244 30.4707L35.0185 31.3213ZM41.8074 27.9005C42.7559 27.2136 43.4902 26.5394 43.9909 25.8747C44.4919 25.2096 44.7774 24.5286 44.7774 23.84H43.8774C43.8774 24.2714 43.699 24.7664 43.272 25.3333C42.8447 25.9006 42.187 26.5144 41.2795 27.1715L41.8074 27.9005ZM44.7774 23.84C44.7774 23.2936 44.5619 22.814 44.1656 22.4178L43.5292 23.0542C43.773 23.298 43.8774 23.5544 43.8774 23.84H44.7774ZM44.1656 22.4178C43.7694 22.0216 43.2899 21.806 42.7434 21.806V22.706C43.029 22.706 43.2855 22.8104 43.5292 23.0542L44.1656 22.4178ZM42.7434 21.806C41.0499 21.806 39.3059 22.8635 37.5183 24.7812L38.1766 25.3948C39.909 23.5365 41.429 22.706 42.7434 22.706V21.806ZM37.5181 24.7814C35.7419 26.6891 34.6956 28.7088 34.425 30.8393L35.3179 30.9527C35.5593 29.0512 36.4969 27.1989 38.1768 25.3946L37.5181 24.7814ZM64.1927 21.824L64.5204 21.5156L64.1927 21.824ZM61.9847 29.408L61.7054 29.7608L62.0144 30.0055L62.2976 29.7314L61.9847 29.408ZM60.8327 28.496L60.4226 28.3108L60.278 28.6308L60.5534 28.8488L60.8327 28.496ZM54.2567 32.528L53.8482 32.3391L53.8472 32.3414L54.2567 32.528ZM51.6167 37.904L51.4359 38.3161L51.8054 38.4781L52.0067 38.1285L51.6167 37.904ZM48.8807 36.704L48.4688 36.5228L48.2873 36.9351L48.6999 37.1161L48.8807 36.704ZM51.9047 29.648L52.3276 29.8018L52.3299 29.7952L51.9047 29.648ZM53.2007 20.144L53.0843 19.7093L52.7507 19.7987V20.144H53.2007ZM55.8887 19.424L56.3382 19.4447L56.3666 18.8301L55.7723 18.9893L55.8887 19.424ZM55.4567 24.272L55.9002 24.348L55.9006 24.346L55.4567 24.272ZM54.0647 29.792L53.6322 29.6677L54.4587 30.0094L54.0647 29.792ZM62.2247 21.458C62.9104 21.458 63.4445 21.6857 63.865 22.1324L64.5204 21.5156C63.9168 20.8743 63.1389 20.558 62.2247 20.558V21.458ZM63.865 22.1324C64.2862 22.5799 64.5107 23.1674 64.5107 23.936H65.4107C65.4107 22.9766 65.1232 22.1561 64.5204 21.5156L63.865 22.1324ZM64.5107 23.936C64.5107 25.4861 63.6188 27.2004 61.6717 29.0846L62.2976 29.7314C64.3186 27.7756 65.4107 25.8419 65.4107 23.936H64.5107ZM62.264 29.0552L61.112 28.1432L60.5534 28.8488L61.7054 29.7608L62.264 29.0552ZM61.2428 28.6812C61.6898 27.6914 61.9547 26.8913 61.9547 26.336H61.0547C61.0547 26.6767 60.8716 27.3166 60.4226 28.3108L61.2428 28.6812ZM61.9547 26.336C61.9547 25.8217 61.8096 25.357 61.4457 25.0295C61.0908 24.7101 60.603 24.59 60.0647 24.59V25.49C60.4863 25.49 60.7186 25.5859 60.8437 25.6985C60.9597 25.803 61.0547 25.9863 61.0547 26.336H61.9547ZM60.0647 24.59C58.892 24.59 57.862 25.3364 56.9619 26.6034L57.6955 27.1246C58.5233 25.9596 59.3174 25.49 60.0647 25.49V24.59ZM56.9619 26.6034C56.0734 27.8538 55.0356 29.7719 53.8483 32.3391L54.6651 32.7169C55.8458 30.1641 56.856 28.3062 57.6955 27.1246L56.9619 26.6034ZM53.8472 32.3414C52.6956 34.8685 51.8231 36.6436 51.2267 37.6795L52.0067 38.1285C52.6262 37.0525 53.5138 35.2435 54.6662 32.7146L53.8472 32.3414ZM51.7974 37.4919L49.0614 36.2919L48.6999 37.1161L51.4359 38.3161L51.7974 37.4919ZM49.2926 36.8852C51.0489 32.8935 52.0651 30.5235 52.3276 29.8018L51.4818 29.4942C51.2322 30.1805 50.2324 32.5145 48.4688 36.5228L49.2926 36.8852ZM52.3299 29.7952C53.2159 27.2356 53.6507 24.0134 53.6507 20.144H52.7507C52.7507 23.9546 52.3214 27.0684 51.4794 29.5008L52.3299 29.7952ZM53.3171 20.5787L56.0051 19.8587L55.7723 18.9893L53.0843 19.7093L53.3171 20.5787ZM55.4392 19.4033C55.3435 21.4769 55.2005 23.0722 55.0128 24.198L55.9006 24.346C56.0969 23.1678 56.2419 21.5311 56.3382 19.4447L55.4392 19.4033ZM55.0132 24.196C54.8257 25.2892 54.3681 27.1082 53.6322 29.6677L54.4972 29.9163C55.2333 27.3558 55.7036 25.4948 55.9002 24.348L55.0132 24.196ZM54.4587 30.0094C56.0671 27.0951 57.5345 24.9354 58.8584 23.5103C60.1968 22.0695 61.3157 21.458 62.2247 21.458V20.558C60.9257 20.558 59.5806 21.4104 58.199 22.8977C56.8029 24.4006 55.2943 26.6329 53.6707 29.5746L54.4587 30.0094ZM76.1192 19.136L75.8799 18.7549L75.7295 18.8493L75.6841 19.021L76.1192 19.136ZM74.5832 24.944L74.1481 24.8289L73.9795 25.4666L74.6348 25.391L74.5832 24.944ZM80.8232 24.224L81.2062 24.4603L81.6934 23.6706L80.7716 23.777L80.8232 24.224ZM79.4312 26.48L79.4909 26.926L79.7022 26.8977L79.8142 26.7163L79.4312 26.48ZM74.0552 27.2L73.9955 26.754L73.6898 26.7949L73.6177 27.0947L74.0552 27.2ZM71.9432 35.024L71.5104 34.9009L71.5103 34.9011L71.9432 35.024ZM68.7272 49.376L68.9334 49.776L69.1772 49.6503V49.376H68.7272ZM65.6552 50.96H65.2052V51.6983L65.8614 51.36L65.6552 50.96ZM69.2072 35.024L68.7772 34.8912L68.7763 34.8944L69.2072 35.024ZM71.4632 27.44L71.899 27.5521L72.0887 26.8145L71.3511 27.0042L71.4632 27.44ZM67.4792 22.832L67.784 23.163L67.7852 23.162L67.4792 22.832ZM73.7672 18.512L73.9726 18.9124L74.1445 18.8241L74.199 18.6387L73.7672 18.512ZM77.8472 6.416L78.2481 6.62038L78.2485 6.61957L77.8472 6.416ZM80.9192 2.192L80.6798 1.81083L80.6726 1.81559L80.9192 2.192ZM89.1272 5.072L88.6779 5.04632L88.6775 5.05415L89.1272 5.072ZM79.8152 7.568L80.2177 7.76925L79.8152 7.568ZM78.0392 12.416L77.6049 12.2982L78.0392 12.416ZM76.9352 16.304L76.5064 16.1676L76.1378 17.326L77.1718 16.6868L76.9352 16.304ZM82.5992 11.888L82.904 12.2191L82.5992 11.888ZM72.1352 25.184V25.634H72.4865L72.5718 25.2931L72.1352 25.184ZM73.1912 20.96L73.6278 21.0691L73.846 20.196L73.0166 20.5453L73.1912 20.96ZM70.3112 22.544L70.036 22.1878L70.028 22.1942L70.3112 22.544ZM75.6841 19.021L74.1481 24.8289L75.0182 25.0591L76.5542 19.2511L75.6841 19.021ZM74.6348 25.391L80.8748 24.671L80.7716 23.777L74.5316 24.497L74.6348 25.391ZM80.4402 23.9877L79.0482 26.2437L79.8142 26.7163L81.2062 24.4603L80.4402 23.9877ZM79.3715 26.034L73.9955 26.754L74.1149 27.646L79.4909 26.926L79.3715 26.034ZM73.6177 27.0947C73.2039 28.8133 72.502 31.4141 71.5104 34.9009L72.376 35.1471C73.3684 31.6579 74.0744 29.0427 74.4927 27.3053L73.6177 27.0947ZM71.5103 34.9011C70.4372 38.681 69.6307 41.774 69.0921 44.1776C68.5562 46.5691 68.2772 48.3129 68.2772 49.376H69.1772C69.1772 48.4231 69.4342 46.7669 69.9703 44.3744C70.5037 41.994 71.3052 38.919 72.3761 35.1469L71.5103 34.9011ZM68.521 48.976L65.449 50.56L65.8614 51.36L68.9334 49.776L68.521 48.976ZM66.1052 50.96C66.1052 48.2852 67.2668 43.0366 69.6381 35.1536L68.7763 34.8944C66.4116 42.7554 65.2052 48.1308 65.2052 50.96H66.1052ZM69.6371 35.1568C70.8522 31.2238 71.6078 28.6847 71.899 27.5521L71.0274 27.3279C70.7426 28.4353 69.9942 30.9521 68.7772 34.8912L69.6371 35.1568ZM71.3511 27.0042C70.2592 27.285 69.2735 27.422 68.3912 27.422V28.322C69.3649 28.322 70.4272 28.171 71.5753 27.8758L71.3511 27.0042ZM68.3912 27.422C67.5262 27.422 66.9606 27.2492 66.618 26.9788C66.2957 26.7244 66.1052 26.3306 66.1052 25.712H65.2052C65.2052 26.5334 65.4706 27.2196 66.0603 27.6852C66.6298 28.1348 67.4321 28.322 68.3912 28.322V27.422ZM66.1052 25.712C66.1052 25.426 66.2147 25.0696 66.4914 24.6328C66.7671 24.1973 67.1931 23.7073 67.784 23.163L67.1743 22.501C66.5492 23.0767 66.0632 23.6267 65.731 24.1512C65.3997 24.6744 65.2052 25.198 65.2052 25.712H66.1052ZM67.7852 23.162C69.5112 21.5615 71.5722 20.1441 73.9726 18.9124L73.5617 18.1116C71.0981 19.3758 68.9672 20.8385 67.1732 22.502L67.7852 23.162ZM74.199 18.6387C76.0907 12.194 77.4392 8.20712 78.2481 6.62038L77.4463 6.21162C76.5912 7.88888 75.2197 11.966 73.3354 18.3853L74.199 18.6387ZM78.2485 6.61957C79.3667 4.41505 80.3461 3.10542 81.1658 2.56841L80.6726 1.81559C79.6362 2.49457 78.5676 4.00095 77.4459 6.21243L78.2485 6.61957ZM81.1585 2.5731C82.4705 1.74928 83.8125 1.346 85.1912 1.346V0.445995C83.6259 0.445995 82.1199 0.906712 80.6799 1.8109L81.1585 2.5731ZM85.1912 1.346C86.5849 1.346 87.4569 1.73766 87.9479 2.40951L88.6745 1.87849C87.9495 0.88633 86.7415 0.445995 85.1912 0.445995V1.346ZM87.9479 2.40951C88.4888 3.14967 88.7365 4.02053 88.6779 5.04633L89.5765 5.09767C89.6458 3.88347 89.3496 2.80232 88.6745 1.87849L87.9479 2.40951ZM88.6775 5.05415C88.6037 6.91609 87.5601 8.99778 85.4248 11.3064C83.2945 13.6097 80.1192 16.0934 75.8799 18.7549L76.3585 19.5171C80.6312 16.8346 83.8798 14.3023 86.0855 11.9176C88.2862 9.53822 89.4907 7.2599 89.5768 5.08984L88.6775 5.05415ZM83.7992 4.526C82.8278 4.526 81.9601 4.76125 81.2138 5.2468C80.4694 5.73109 79.8727 6.44685 79.4127 7.36675L80.2177 7.76925C80.6217 6.96116 81.121 6.38091 81.7046 6.0012C82.2863 5.62274 82.9785 5.426 83.7992 5.426V4.526ZM79.4127 7.36675C78.7241 8.74404 78.1225 10.3895 77.6049 12.2982L78.4735 12.5338C78.9799 10.6665 79.5623 9.07996 80.2177 7.76925L79.4127 7.36675ZM77.6049 12.2982C77.0927 14.1869 76.727 15.4741 76.5064 16.1676L77.364 16.4404C77.5913 15.7259 77.9617 14.4211 78.4735 12.5338L77.6049 12.2982ZM77.1718 16.6868C78.9625 15.5798 80.8733 14.0886 82.904 12.2191L82.2944 11.5569C80.2931 13.3994 78.4279 14.8522 76.6986 15.9212L77.1718 16.6868ZM82.904 12.2191C84.9322 10.3518 86.0958 8.6283 86.1687 7.06091L85.2697 7.01909C85.2146 8.20369 84.2981 9.71221 82.2944 11.5569L82.904 12.2191ZM86.1687 7.06091C86.2037 6.3084 86.0508 5.65224 85.6167 5.1855C85.1803 4.7164 84.5414 4.526 83.7992 4.526V5.426C84.401 5.426 84.7541 5.5796 84.9577 5.79849C85.1635 6.01976 85.2987 6.3956 85.2697 7.01909L86.1687 7.06091ZM72.5718 25.2931L73.6278 21.0691L72.7546 20.8509L71.6986 25.0749L72.5718 25.2931ZM73.0166 20.5453C71.7802 21.0658 70.7818 21.6116 70.036 22.1879L70.5863 22.9001C71.2486 22.3884 72.1702 21.8782 73.3658 21.3747L73.0166 20.5453ZM70.028 22.1942C69.6752 22.4799 69.3905 22.7602 69.1907 23.0361C68.9931 23.309 68.8532 23.6129 68.8532 23.936H69.7532C69.7532 23.8751 69.7813 23.755 69.9197 23.5639C70.0559 23.3758 70.2752 23.1521 70.5943 22.8938L70.028 22.1942ZM68.8532 23.936C68.8532 24.2354 68.9403 24.5142 69.1213 24.7535C69.2979 24.987 69.5452 25.1584 69.8297 25.2838C70.3884 25.53 71.172 25.634 72.1352 25.634V24.734C71.2103 24.734 70.5779 24.63 70.1927 24.4602C70.0052 24.3776 69.8984 24.289 69.8391 24.2105C69.7841 24.1378 69.7532 24.0526 69.7532 23.936H68.8532ZM95.8866 23.744L96.2716 23.5112L96.0899 23.2106L95.7542 23.3139L95.8866 23.744ZM94.4466 35.264L94.7829 35.563L94.7852 35.5603L94.4466 35.264ZM83.7426 36.704L83.4147 37.0126L83.4244 37.0222L83.7426 36.704ZM85.7586 24.08L86.0789 24.3961L86.081 24.3939L85.7586 24.08ZM94.8786 20.48L95.3267 20.4393L95.2945 20.0849L94.9422 20.0345L94.8786 20.48ZM95.0226 22.064V22.514H95.5153L95.4707 22.0233L95.0226 22.064ZM87.1026 33.296L86.7473 33.5723L86.7525 33.5788L87.1026 33.296ZM93.1506 32.816L92.7761 32.5664L93.1506 32.816ZM93.3906 24.512L93.2582 24.0819L92.7608 24.235L92.9841 24.7051L93.3906 24.512ZM95.5015 23.9768C96.2895 25.2801 96.6846 26.7191 96.6846 28.304H97.5846C97.5846 26.5609 97.1476 24.9599 96.2716 23.5112L95.5015 23.9768ZM96.6846 28.304C96.6846 30.7812 95.832 32.9972 94.1079 34.9677L94.7852 35.5603C96.6451 33.4348 97.5846 31.0108 97.5846 28.304H96.6846ZM94.1102 34.965C92.3932 36.8967 90.3991 37.838 88.1106 37.838V38.738C90.686 38.738 92.9159 37.6633 94.7829 35.563L94.1102 34.965ZM88.1106 37.838C86.3432 37.838 85.0129 37.338 84.0608 36.3858L83.4244 37.0222C84.5842 38.182 86.1659 38.738 88.1106 38.738V37.838ZM84.0703 36.3956C83.144 35.4115 82.6566 34.0449 82.6566 32.24H81.7566C81.7566 34.2111 82.2931 35.8205 83.4149 37.0124L84.0703 36.3956ZM82.6566 32.24C82.6566 29.3317 83.7841 26.7219 86.0789 24.3961L85.4382 23.7639C82.9971 26.2381 81.7566 29.0683 81.7566 32.24H82.6566ZM86.081 24.3939C88.3784 22.0344 90.9228 20.882 93.7266 20.882V19.982C90.6423 19.982 87.8748 21.2616 85.4361 23.7661L86.081 24.3939ZM93.7266 20.882C94.2705 20.882 94.6259 20.8985 94.8149 20.9255L94.9422 20.0345C94.6833 19.9975 94.2706 19.982 93.7266 19.982V20.882ZM94.4304 20.5207L94.5744 22.1047L95.4707 22.0233L95.3267 20.4393L94.4304 20.5207ZM95.0226 21.614C92.3703 21.614 90.1329 22.3792 88.3436 23.9322L88.9335 24.6118C90.5363 23.2208 92.5548 22.514 95.0226 22.514V21.614ZM88.3436 23.9322C86.5462 25.4921 85.6446 27.5055 85.6446 29.936H86.5446C86.5446 27.7585 87.3389 25.9959 88.9335 24.6118L88.3436 23.9322ZM85.6446 29.936C85.6446 31.3859 85.9996 32.6108 86.7474 33.5723L87.4578 33.0197C86.8615 32.2532 86.5446 31.2381 86.5446 29.936H85.6446ZM86.7525 33.5788C87.527 34.5377 88.6443 34.994 90.0306 34.994V34.094C88.8568 34.094 88.0221 33.7183 87.4526 33.0132L86.7525 33.5788ZM90.0306 34.994C91.5027 34.994 92.679 34.3345 93.525 33.0656L92.7761 32.5664C92.0861 33.6015 91.1824 34.094 90.0306 34.094V34.994ZM93.525 33.0656C94.3476 31.8317 94.7526 30.3987 94.7526 28.784H93.8526C93.8526 30.2413 93.4895 31.4963 92.7761 32.5664L93.525 33.0656ZM94.7526 28.784C94.7526 27.1564 94.4366 25.6654 93.797 24.3189L92.9841 24.7051C93.5605 25.9186 93.8526 27.2756 93.8526 28.784H94.7526ZM93.5229 24.9421L96.0189 24.1741L95.7542 23.3139L93.2582 24.0819L93.5229 24.9421ZM113.505 21.824L113.833 21.5156L113.505 21.824ZM111.297 29.408L111.018 29.7608L111.327 30.0055L111.61 29.7314L111.297 29.408ZM110.145 28.496L109.735 28.3108L109.591 28.6308L109.866 28.8488L110.145 28.496ZM103.569 32.528L103.161 32.3391L103.16 32.3414L103.569 32.528ZM100.929 37.904L100.748 38.3161L101.118 38.4781L101.319 38.1285L100.929 37.904ZM98.1932 36.704L97.7813 36.5228L97.5999 36.9351L98.0124 37.1161L98.1932 36.704ZM101.217 29.648L101.64 29.8018L101.642 29.7952L101.217 29.648ZM102.513 20.144L102.397 19.7093L102.063 19.7987V20.144H102.513ZM105.201 19.424L105.651 19.4447L105.679 18.8301L105.085 18.9893L105.201 19.424ZM104.769 24.272L105.213 24.348L105.213 24.346L104.769 24.272ZM103.377 29.792L102.945 29.6677L103.771 30.0094L103.377 29.792ZM111.537 21.458C112.223 21.458 112.757 21.6857 113.177 22.1324L113.833 21.5156C113.229 20.8743 112.451 20.558 111.537 20.558V21.458ZM113.177 22.1324C113.599 22.5799 113.823 23.1674 113.823 23.936H114.723C114.723 22.9766 114.436 22.1561 113.833 21.5156L113.177 22.1324ZM113.823 23.936C113.823 25.4861 112.931 27.2004 110.984 29.0846L111.61 29.7314C113.631 27.7756 114.723 25.8419 114.723 23.936H113.823ZM111.577 29.0552L110.425 28.1432L109.866 28.8488L111.018 29.7608L111.577 29.0552ZM110.555 28.6812C111.002 27.6914 111.267 26.8913 111.267 26.336H110.367C110.367 26.6767 110.184 27.3166 109.735 28.3108L110.555 28.6812ZM111.267 26.336C111.267 25.8217 111.122 25.357 110.758 25.0295C110.403 24.7101 109.916 24.59 109.377 24.59V25.49C109.799 25.49 110.031 25.5859 110.156 25.6985C110.272 25.803 110.367 25.9863 110.367 26.336H111.267ZM109.377 24.59C108.204 24.59 107.175 25.3364 106.274 26.6034L107.008 27.1246C107.836 25.9596 108.63 25.49 109.377 25.49V24.59ZM106.274 26.6034C105.386 27.8538 104.348 29.7719 103.161 32.3391L103.978 32.7169C105.158 30.1641 106.168 28.3062 107.008 27.1246L106.274 26.6034ZM103.16 32.3414C102.008 34.8685 101.136 36.6436 100.539 37.6795L101.319 38.1285C101.939 37.0525 102.826 35.2435 103.979 32.7146L103.16 32.3414ZM101.11 37.4919L98.3739 36.2919L98.0124 37.1161L100.748 38.3161L101.11 37.4919ZM98.6051 36.8852C100.361 32.8935 101.378 30.5235 101.64 29.8018L100.794 29.4942C100.545 30.1805 99.5449 32.5145 97.7813 36.5228L98.6051 36.8852ZM101.642 29.7952C102.528 27.2356 102.963 24.0134 102.963 20.144H102.063C102.063 23.9546 101.634 27.0684 100.792 29.5008L101.642 29.7952ZM102.63 20.5787L105.318 19.8587L105.085 18.9893L102.397 19.7093L102.63 20.5787ZM104.752 19.4033C104.656 21.4769 104.513 23.0722 104.325 24.198L105.213 24.346C105.409 23.1678 105.554 21.5311 105.651 19.4447L104.752 19.4033ZM104.326 24.196C104.138 25.2892 103.681 27.1082 102.945 29.6677L103.81 29.9163C104.546 27.3558 105.016 25.4948 105.213 24.348L104.326 24.196ZM103.771 30.0094C105.38 27.0951 106.847 24.9354 108.171 23.5103C109.509 22.0695 110.628 21.458 111.537 21.458V20.558C110.238 20.558 108.893 21.4104 107.511 22.8977C106.115 24.4006 104.607 26.6329 102.983 29.5746L103.771 30.0094ZM147.656 31.76L147.966 31.4341L147.619 31.1038L147.311 31.4706L147.656 31.76ZM148.664 32.72L149.057 32.9395L149.227 32.6348L148.974 32.3941L148.664 32.72ZM140.12 36.848L139.792 37.1564L139.801 37.1663L139.811 37.1757L140.12 36.848ZM140.936 30.176L141.339 30.3748L140.936 30.176ZM142.616 25.28L142.167 25.2519L142.166 25.2543L142.616 25.28ZM142.136 24.032L141.817 24.3502L141.825 24.3578L141.833 24.365L142.136 24.032ZM139.016 23.984L139.199 24.3953L139.208 24.3907L139.016 23.984ZM137.288 25.28L136.961 24.9704L136.952 24.9799L137.288 25.28ZM135.752 27.056L135.406 26.7679L135.401 26.7737L135.396 26.7797L135.752 27.056ZM134.216 29.504L133.821 29.2885L133.816 29.2979L134.216 29.504ZM132.824 32.144L132.428 31.9284L132.423 31.9389L132.824 32.144ZM129.944 38.048L129.795 38.4727L130.176 38.6062L130.35 38.2413L129.944 38.048ZM127.064 37.04H126.614V37.3593L126.915 37.4647L127.064 37.04ZM128.648 31.616L129.079 31.7453L128.648 31.616ZM129.752 23.888L129.433 24.2062L129.442 24.2146L129.451 24.2225L129.752 23.888ZM122.552 28.784L122.186 28.5224L122.184 28.5246L122.552 28.784ZM117.704 37.952L117.561 38.3789L118.01 38.5285L118.137 38.0727L117.704 37.952ZM114.968 37.04L114.52 36.9977L114.486 37.3538L114.825 37.4669L114.968 37.04ZM117.224 27.92L117.654 28.0519L117.654 28.051L117.224 27.92ZM120.632 18.896L120.782 18.472L120.43 18.3467L120.242 18.6702L120.632 18.896ZM122.792 19.664L123.202 19.8484L123.402 19.4034L122.942 19.24L122.792 19.664ZM120.728 25.28L121.164 25.3913L121.164 25.3891L120.728 25.28ZM119.72 30.128L119.276 30.054L120.088 30.3859L119.72 30.128ZM126.632 21.872L126.922 22.2158L126.926 22.2128L126.632 21.872ZM133.256 25.712L132.825 25.5807L132.823 25.5874L133.256 25.712ZM131.96 30.176L131.528 30.049L132.342 30.4136L131.96 30.176ZM145.88 20.336L145.552 20.6446L145.561 20.6542L145.88 20.336ZM144.824 27.824L144.422 27.6206L144.42 27.6249L144.824 27.824ZM143.432 33.728L143.095 34.027L143.432 33.728ZM147.345 32.0859L148.353 33.0459L148.974 32.3941L147.966 31.4341L147.345 32.0859ZM148.271 32.5005C146.477 35.7103 144.5 37.166 142.376 37.166V38.066C144.987 38.066 147.202 36.2577 149.057 32.9395L148.271 32.5005ZM142.376 37.166C141.496 37.166 140.867 36.9333 140.428 36.5203L139.811 37.1757C140.461 37.7868 141.335 38.066 142.376 38.066V37.166ZM140.447 36.5396C140.026 36.0921 139.802 35.5046 139.802 34.736H138.902C138.902 35.6954 139.189 36.5159 139.792 37.1564L140.447 36.5396ZM139.802 34.736C139.802 34.3633 139.914 33.8157 140.173 33.0717C140.429 32.3353 140.816 31.4374 141.339 30.3748L140.532 29.9772C139.999 31.0586 139.595 31.9927 139.323 32.7763C139.053 33.5523 138.902 34.2127 138.902 34.736H139.802ZM141.339 30.3748C142.399 28.2241 142.995 26.5225 143.065 25.3057L142.166 25.2543C142.108 26.2775 141.585 27.8399 140.532 29.9772L141.339 30.3748ZM143.065 25.3081C143.105 24.672 142.9 24.1189 142.438 23.699L141.833 24.365C142.075 24.5851 142.191 24.864 142.167 25.2519L143.065 25.3081ZM142.454 23.7138C142.028 23.288 141.453 23.102 140.792 23.102V24.002C141.283 24.002 141.603 24.136 141.817 24.3502L142.454 23.7138ZM140.792 23.102C140.139 23.102 139.481 23.2656 138.823 23.5773L139.208 24.3907C139.766 24.1264 140.293 24.002 140.792 24.002V23.102ZM138.833 23.5728C138.188 23.8594 137.565 24.3328 136.961 24.9705L137.614 25.5895C138.162 25.0112 138.691 24.6206 139.198 24.3952L138.833 23.5728ZM136.952 24.9799C136.405 25.5915 135.89 26.1875 135.406 26.7679L136.097 27.3441C136.574 26.7725 137.082 26.1845 137.623 25.5801L136.952 24.9799ZM135.396 26.7797C134.927 27.3832 134.402 28.223 133.821 29.2885L134.611 29.7195C135.182 28.673 135.68 27.8808 136.107 27.3323L135.396 26.7797ZM133.816 29.2979C133.273 30.3521 132.81 31.2287 132.429 31.9285L133.219 32.3595C133.605 31.6513 134.071 30.7679 134.616 29.7101L133.816 29.2979ZM132.423 31.9389C131.748 33.2569 130.786 35.2298 129.537 37.8547L130.35 38.2413C131.598 35.6182 132.555 33.6551 133.224 32.3491L132.423 31.9389ZM130.092 37.6233L127.212 36.6153L126.915 37.4647L129.795 38.4727L130.092 37.6233ZM127.514 37.04C127.514 37.0904 127.503 37.1263 127.51 37.0956C127.512 37.0842 127.517 37.0642 127.525 37.0337C127.54 36.9734 127.564 36.8851 127.596 36.7673C127.661 36.5323 127.76 36.1896 127.892 35.7381C128.155 34.8358 128.551 33.505 129.079 31.7453L128.217 31.4867C127.689 33.247 127.292 34.5802 127.028 35.4859C126.896 35.9384 126.796 36.2857 126.729 36.5267C126.696 36.6469 126.67 36.7431 126.652 36.8138C126.643 36.8488 126.636 36.881 126.63 36.9082C126.628 36.9164 126.614 36.9776 126.614 37.04H127.514ZM129.079 31.7453C129.608 29.9827 130.006 28.5714 130.272 27.5139C130.533 26.4781 130.682 25.7301 130.682 25.328H129.782C129.782 25.5979 129.666 26.2339 129.399 27.2941C129.138 28.3326 128.744 29.7293 128.217 31.4867L129.079 31.7453ZM130.682 25.328C130.682 24.5992 130.51 23.9649 130.053 23.5535L129.451 24.2225C129.634 24.3871 129.782 24.7128 129.782 25.328H130.682ZM130.07 23.5698C129.66 23.1599 129.143 22.958 128.552 22.958V23.858C128.92 23.858 129.203 23.9761 129.433 24.2062L130.07 23.5698ZM128.552 22.958C127.658 22.958 126.691 23.5035 125.671 24.4169C124.636 25.3444 123.474 26.7183 122.186 28.5224L122.918 29.0456C124.189 27.2657 125.307 25.9516 126.272 25.0872C127.253 24.2085 128.005 23.858 128.552 23.858V22.958ZM122.184 28.5246C119.643 32.1264 117.994 35.2313 117.27 37.8313L118.137 38.0727C118.821 35.6167 120.404 32.6096 122.919 29.0434L122.184 28.5246ZM117.846 37.5251L115.11 36.6131L114.825 37.4669L117.561 38.3789L117.846 37.5251ZM115.416 37.0823C115.571 35.4383 116.309 32.4398 117.654 28.0519L116.793 27.7881C115.451 32.1682 114.685 35.2497 114.52 36.9977L115.416 37.0823ZM117.654 28.051C118.999 23.6334 120.122 20.6716 121.021 19.1218L120.242 18.6702C119.285 20.3204 118.137 23.3746 116.793 27.789L117.654 28.051ZM120.481 19.32L122.641 20.088L122.942 19.24L120.782 18.472L120.481 19.32ZM122.381 19.4796C121.383 21.7006 120.684 23.5993 120.291 25.1709L121.164 25.3891C121.539 23.8887 122.216 22.0434 123.202 19.8484L122.381 19.4796ZM120.292 25.1687C119.904 26.6865 119.566 28.315 119.276 30.054L120.164 30.202C120.45 28.485 120.783 26.8815 121.164 25.3913L120.292 25.1687ZM120.088 30.3859C122.835 26.4571 125.112 23.7447 126.922 22.2157L126.341 21.5283C124.439 23.1353 122.108 25.9269 119.351 29.8701L120.088 30.3859ZM126.926 22.2128C128.748 20.6418 130.325 19.922 131.672 19.922V19.022C130.01 19.022 128.227 19.9022 126.338 21.5312L126.926 22.2128ZM131.672 19.922C132.418 19.922 132.896 20.1084 133.189 20.4022C133.483 20.696 133.67 21.1734 133.67 21.92H134.57C134.57 21.0346 134.348 20.288 133.826 19.7658C133.304 19.2436 132.557 19.022 131.672 19.022V19.922ZM133.67 21.92C133.67 22.1873 133.607 22.6226 133.465 23.248C133.324 23.8656 133.112 24.6423 132.825 25.5807L133.686 25.8433C133.976 24.8937 134.195 24.0944 134.342 23.448C134.488 22.8094 134.57 22.2927 134.57 21.92H133.67ZM132.823 25.5874C132.279 27.4751 131.848 28.9622 131.528 30.049L132.391 30.303C132.712 29.2138 133.144 27.7249 133.688 25.8366L132.823 25.5874ZM132.342 30.4136C134.539 26.8795 136.605 24.2549 138.536 22.5187C140.472 20.7794 142.228 19.97 143.816 19.97V19.07C141.915 19.07 139.952 20.0366 137.935 21.8493C135.915 23.6651 133.797 26.3685 131.578 29.9384L132.342 30.4136ZM143.816 19.97C144.577 19.97 145.139 20.2051 145.552 20.6444L146.207 20.0276C145.597 19.3789 144.783 19.07 143.816 19.07V19.97ZM145.561 20.6542C145.957 21.0497 146.198 21.6967 146.198 22.688H147.098C147.098 21.5673 146.826 20.6463 146.198 20.0178L145.561 20.6542ZM146.198 22.688C146.198 23.1235 146.066 23.7504 145.768 24.5894C145.472 25.421 145.025 26.4304 144.422 27.6206L145.225 28.0274C145.838 26.8176 146.303 25.771 146.616 24.8906C146.926 24.0176 147.098 23.2765 147.098 22.688H146.198ZM144.42 27.6249C143.826 28.8302 143.375 29.8233 143.072 30.6007C142.778 31.3561 142.598 31.9691 142.598 32.384H143.498C143.498 32.1589 143.613 31.6919 143.911 30.9273C144.2 30.1846 144.638 29.2178 145.227 28.0231L144.42 27.6249ZM142.598 32.384C142.598 33.0416 142.734 33.6204 143.095 34.027L143.768 33.429C143.617 33.2596 143.498 32.9424 143.498 32.384H142.598ZM143.095 34.027C143.436 34.4107 143.879 34.61 144.392 34.61V33.71C144.137 33.71 143.939 33.6213 143.768 33.429L143.095 34.027ZM144.392 34.61C144.947 34.61 145.521 34.3468 146.098 33.9225C146.682 33.4931 147.316 32.8637 148 32.0494L147.311 31.4706C146.651 32.2563 146.069 32.8269 145.565 33.1975C145.054 33.5732 144.669 33.71 144.392 33.71V34.61ZM163.24 32.336L163.518 31.9816L163.262 31.7818L162.992 31.9608L163.24 32.336ZM164.344 33.2L164.709 33.4632L164.962 33.1122L164.622 32.8456L164.344 33.2ZM160.264 36.656L160.471 37.0555L160.477 37.0524L160.264 36.656ZM151.288 36.56L150.975 36.8834L151.288 36.56ZM154.456 24.08L154.154 23.7469L154.152 23.7484L154.456 24.08ZM163.768 27.536L163.49 27.1821L163.488 27.1841L163.768 27.536ZM154.408 32.336L154.257 31.9122L153.82 32.0682L153.989 32.5L154.408 32.336ZM155.752 34.064L155.498 34.4354L155.752 34.064ZM154.168 30.896L153.722 30.8393L153.631 31.558L154.315 31.3213L154.168 30.896ZM160.84 27.536L161.104 27.9005L160.84 27.536ZM157.144 25.088L156.815 24.7812L156.815 24.7814L157.144 25.088ZM162.963 32.6904L164.067 33.5544L164.622 32.8456L163.518 31.9816L162.963 32.6904ZM163.979 32.9368C163.033 34.2494 161.729 35.3588 160.051 36.2596L160.477 37.0524C162.256 36.0972 163.672 34.9026 164.709 33.4632L163.979 32.9368ZM160.057 36.2565C158.381 37.1257 156.772 37.55 155.224 37.55V38.45C156.941 38.45 158.692 37.9783 160.471 37.0555L160.057 36.2565ZM155.224 37.55C153.686 37.55 152.494 37.1008 151.601 36.2366L150.975 36.8834C152.066 37.9392 153.498 38.45 155.224 38.45V37.55ZM151.601 36.2366C150.709 35.3732 150.25 34.2322 150.25 32.768H149.35C149.35 34.4398 149.884 35.8268 150.975 36.8834L151.601 36.2366ZM150.25 32.768C150.25 29.9965 151.709 27.2118 154.761 24.4116L154.152 23.7484C150.996 26.6442 149.35 29.6515 149.35 32.768H150.25ZM154.759 24.4131C157.839 21.6155 160.904 20.258 163.96 20.258V19.358C160.616 19.358 157.345 20.8485 154.154 23.7469L154.759 24.4131ZM163.96 20.258C164.969 20.258 165.643 20.4588 166.058 20.7855C166.452 21.096 166.678 21.5737 166.678 22.304H167.578C167.578 21.3703 167.277 20.6 166.615 20.0785C165.973 19.5732 165.063 19.358 163.96 19.358V20.258ZM166.678 22.304C166.678 23.8247 165.691 25.4528 163.49 27.1822L164.046 27.8898C166.325 26.0992 167.578 24.2393 167.578 22.304H166.678ZM163.488 27.1841C161.333 28.9016 158.264 30.4812 154.257 31.9122L154.56 32.7598C158.617 31.3108 161.787 29.6904 164.049 27.8879L163.488 27.1841ZM153.989 32.5C154.308 33.3137 154.81 33.9646 155.498 34.4354L156.006 33.6926C155.478 33.3314 155.085 32.8303 154.827 32.172L153.989 32.5ZM155.498 34.4354C156.169 34.8946 156.88 35.138 157.624 35.138V34.238C157.088 34.238 156.551 34.0654 156.006 33.6926L155.498 34.4354ZM157.624 35.138C159.143 35.138 161.111 34.2858 163.489 32.7112L162.992 31.9608C160.634 33.5222 158.858 34.238 157.624 34.238V35.138ZM154.315 31.3213C156.941 30.4136 159.206 29.2749 161.104 27.9005L160.576 27.1715C158.762 28.4851 156.579 29.5864 154.021 30.4707L154.315 31.3213ZM161.104 27.9005C162.053 27.2136 162.787 26.5394 163.288 25.8747C163.789 25.2096 164.074 24.5286 164.074 23.84H163.174C163.174 24.2714 162.996 24.7664 162.569 25.3333C162.142 25.9006 161.484 26.5144 160.576 27.1715L161.104 27.9005ZM164.074 23.84C164.074 23.2936 163.859 22.814 163.463 22.4178L162.826 23.0542C163.07 23.298 163.174 23.5544 163.174 23.84H164.074ZM163.463 22.4178C163.066 22.0216 162.587 21.806 162.04 21.806V22.706C162.326 22.706 162.582 22.8104 162.826 23.0542L163.463 22.4178ZM162.04 21.806C160.347 21.806 158.603 22.8635 156.815 24.7812L157.473 25.3948C159.206 23.5365 160.726 22.706 162.04 22.706V21.806ZM156.815 24.7814C155.039 26.6891 153.992 28.7088 153.722 30.8393L154.615 30.9527C154.856 29.0512 155.794 27.1989 157.474 25.3946L156.815 24.7814ZM188.194 32.192L188.466 31.8341L188.196 31.6279L187.924 31.832L188.194 32.192ZM189.202 32.96L189.604 33.1612L189.771 32.8279L189.474 32.6021L189.202 32.96ZM186.274 36.512L185.999 36.1553L185.995 36.1588L186.274 36.512ZM180.61 37.088L180.928 36.7698V36.7698L180.61 37.088ZM181.378 30.416L180.977 30.2101L180.976 30.2124L181.378 30.416ZM182.482 24.416L182.15 24.7201L182.163 24.7345L182.177 24.7477L182.482 24.416ZM176.242 27.584L176.615 27.8359L176.616 27.8336L176.242 27.584ZM170.674 38.288L170.525 38.7127L170.918 38.8504L171.086 38.4687L170.674 38.288ZM167.794 37.28L167.349 37.2073L167.288 37.58L167.645 37.7047L167.794 37.28ZM170.386 26.432L169.958 26.2932L169.957 26.2956L170.386 26.432ZM173.554 18.8L173.69 18.371L173.357 18.2656L173.172 18.5615L173.554 18.8ZM175.522 19.424L175.94 19.5891L176.117 19.1407L175.658 18.995L175.522 19.424ZM172.114 31.184L171.677 31.076L172.502 31.4111L172.114 31.184ZM186.274 20.672L185.946 20.9806L185.955 20.9902L186.274 20.672ZM186.802 24.608L187.229 24.7503L187.231 24.7435L186.802 24.608ZM184.978 28.736L184.57 28.5444L184.569 28.547L184.978 28.736ZM183.97 34.064L183.651 34.3822L183.66 34.3906L183.669 34.3985L183.97 34.064ZM185.602 34.352L185.803 34.7545L185.602 34.352ZM186.226 33.92L185.956 33.56L185.944 33.5688L185.933 33.5783L186.226 33.92ZM186.898 33.392L186.609 33.0463L186.898 33.392ZM187.57 32.768L187.251 32.4498L187.57 32.768ZM187.921 32.5499L188.929 33.3179L189.474 32.6021L188.466 31.8341L187.921 32.5499ZM188.799 32.7588C188.125 34.1059 187.193 35.2368 185.999 36.1553L186.548 36.8687C187.85 35.8672 188.87 34.6301 189.604 33.1612L188.799 32.7588ZM185.995 36.1588C184.816 37.0892 183.809 37.502 182.962 37.502V38.402C184.098 38.402 185.299 37.8548 186.552 36.8652L185.995 36.1588ZM182.962 37.502C182.061 37.502 181.402 37.2437 180.928 36.7698L180.291 37.4062C180.969 38.0843 181.878 38.402 182.962 38.402V37.502ZM180.928 36.7698C180.442 36.2837 180.196 35.6807 180.196 34.928H179.296C179.296 35.9033 179.625 36.7403 180.291 37.4062L180.928 36.7698ZM180.196 34.928C180.196 34.5753 180.31 34.0424 180.577 33.3051C180.84 32.5766 181.239 31.6825 181.779 30.6196L180.976 30.2124C180.428 31.2935 180.011 32.2234 179.73 32.9989C179.453 33.7656 179.296 34.4167 179.296 34.928H180.196ZM181.778 30.6219C182.343 29.5228 182.773 28.5588 183.062 27.7327C183.35 26.9119 183.508 26.201 183.508 25.616H182.608C182.608 26.055 182.486 26.6561 182.213 27.4353C181.942 28.2092 181.532 29.1332 180.977 30.2101L181.778 30.6219ZM183.508 25.616C183.508 25.021 183.246 24.5063 182.786 24.0843L182.177 24.7477C182.485 25.0297 182.608 25.315 182.608 25.616H183.508ZM182.813 24.1119C182.378 23.6368 181.826 23.39 181.186 23.39V24.29C181.569 24.29 181.881 24.4272 182.15 24.7201L182.813 24.1119ZM181.186 23.39C179.312 23.39 177.547 24.8146 175.867 27.3344L176.616 27.8336C178.264 25.3614 179.795 24.29 181.186 24.29V23.39ZM175.869 27.3322C174.182 29.829 172.314 33.4254 170.261 38.1073L171.086 38.4687C173.129 33.8066 174.973 30.267 176.614 27.8358L175.869 27.3322ZM170.822 37.8633L167.942 36.8553L167.645 37.7047L170.525 38.7127L170.822 37.8633ZM168.238 37.3527C168.842 33.6619 169.701 30.0672 170.814 26.5684L169.957 26.2956C168.83 29.8368 167.961 33.4741 167.349 37.2073L168.238 37.3527ZM170.814 26.5708C171.964 23.025 173.006 20.5252 173.935 19.0385L173.172 18.5615C172.181 20.1468 171.112 22.7349 169.958 26.2932L170.814 26.5708ZM173.418 19.229L175.386 19.853L175.658 18.995L173.69 18.371L173.418 19.229ZM175.103 19.2589C174.195 21.5615 173.053 25.5075 171.677 31.076L172.55 31.292C173.926 25.7245 175.056 21.8305 175.94 19.5891L175.103 19.2589ZM172.502 31.4111C174.699 27.6539 176.793 24.8636 178.78 23.0177C180.769 21.1696 182.608 20.306 184.306 20.306V19.406C182.291 19.406 180.242 20.4304 178.167 22.3583C176.09 24.2884 173.944 27.1621 171.725 30.9568L172.502 31.4111ZM184.306 20.306C184.991 20.306 185.525 20.5337 185.946 20.9804L186.601 20.3636C185.998 19.7223 185.22 19.406 184.306 19.406V20.306ZM185.955 20.9902C186.419 21.4541 186.64 21.9812 186.64 22.592H187.54C187.54 21.7308 187.216 20.9779 186.592 20.3538L185.955 20.9902ZM186.64 22.592C186.64 23.289 186.549 23.9145 186.372 24.4725L187.231 24.7435C187.438 24.0855 187.54 23.367 187.54 22.592H186.64ZM186.375 24.4657C186.193 25.0108 185.599 26.3595 184.57 28.5444L185.385 28.9276C186.405 26.7605 187.026 25.3572 187.228 24.7503L186.375 24.4657ZM184.569 28.547C184.071 29.6239 183.693 30.5081 183.439 31.1962C183.194 31.862 183.04 32.405 183.04 32.768H183.94C183.94 32.587 184.033 32.186 184.284 31.5078C184.526 30.8519 184.892 29.9921 185.386 28.925L184.569 28.547ZM183.04 32.768C183.04 33.4055 183.23 33.9612 183.651 34.3822L184.288 33.7458C184.069 33.5268 183.94 33.2185 183.94 32.768H183.04ZM183.669 34.3985C184.031 34.725 184.438 34.946 184.882 34.946V34.046C184.749 34.046 184.548 33.979 184.271 33.7295L183.669 34.3985ZM184.882 34.946C185.217 34.946 185.531 34.8905 185.803 34.7545L185.4 33.9495C185.288 34.0055 185.122 34.046 184.882 34.046V34.946ZM185.803 34.7545C186.037 34.6372 186.276 34.4694 186.518 34.2617L185.933 33.5783C185.727 33.7546 185.55 33.8748 185.4 33.9495L185.803 34.7545ZM186.496 34.28C186.756 34.0846 186.986 33.9038 187.186 33.7377L186.609 33.0463C186.425 33.2002 186.207 33.3714 185.956 33.56L186.496 34.28ZM187.186 33.7377C187.392 33.5661 187.626 33.348 187.888 33.0862L187.251 32.4498C187.001 32.7 186.788 32.8979 186.609 33.0463L187.186 33.7377ZM187.888 33.0862C188.177 32.7972 188.364 32.6265 188.464 32.552L187.924 31.832C187.767 31.9495 187.538 32.1628 187.251 32.4498L187.888 33.0862Z" fill="#EC625F"/>
</g>
<defs>
<filter id="filter0_d_8_10" x="0.172791" y="0.895996" width="193.029" height="58.064" filterUnits="userSpaceOnUse" color-interpolation-filters="sRGB">
<feFlood flood-opacity="0" result="BackgroundImageFix"/>
<feColorMatrix in="SourceAlpha" type="matrix" values="0 0 0 0 0 0 0 0 0 0 0 0 0 0 0 0 0 0 127 0" result="hardAlpha"/>
<feOffset dy="4"/>
<feGaussianBlur stdDeviation="2"/>
<feComposite in2="hardAlpha" operator="out"/>
<feColorMatrix type="matrix" values="0 0 0 0 0.92549 0 0 0 0 0.384314 0 0 0 0 0.372549 0 0 0 0.25 0"/>
<feBlend mode="normal" in2="BackgroundImageFix" result="effect1_dropShadow_8_10"/>
<feBlend mode="normal" in="SourceGraphic" in2="effect1_dropShadow_8_10" result="shape"/>
</filter>
</defs>
</svg>
